<mxfile host="drawio-plugin" modified="2024-01-16T21:27:41.966Z" agent="5.0 (Windows NT 10.0; Win64; x64) AppleWebKit/537.36 (KHTML, like Gecko) Chrome/111.0.0.0 Safari/537.36" etag="bXS6lFEZ5a1GVTM7nNM1" version="20.5.3" type="embed"><diagram name="Seite-1" id="0b6pMwF9IUobV9L8IJvM"><mxGraphModel dx="-893" dy="510" grid="1" gridSize="10" guides="1" tooltips="1" connect="1" arrows="1" fold="1" page="1" pageScale="1" pageWidth="827" pageHeight="1169" math="0" shadow="0"><root><mxCell id="0"/><mxCell id="1" parent="0"/><mxCell id="88" value="" style="swimlane;startSize=0;rounded=0;fillColor=default;" parent="1" vertex="1"><mxGeometry x="1720" y="80" width="780" height="1600" as="geometry"/></mxCell><mxCell id="36" value="GET&lt;br&gt;/task/task_id/attachment/attachment_id" style="rounded=1;whiteSpace=wrap;html=1;" parent="88" vertex="1"><mxGeometry x="467" y="920" width="220" height="60" as="geometry"/></mxCell><mxCell id="37" value="GET&lt;br&gt;/task/task_id/instruction/instruction_id" style="rounded=1;whiteSpace=wrap;html=1;" parent="88" vertex="1"><mxGeometry x="467" y="1040" width="220" height="60" as="geometry"/></mxCell><mxCell id="38" value="GET&lt;br&gt;/file/id" style="rounded=1;whiteSpace=wrap;html=1;" parent="88" vertex="1"><mxGeometry x="467" y="800" width="220" height="60" as="geometry"/></mxCell><mxCell id="42" value="GET&lt;br&gt;/admin/id" style="rounded=1;whiteSpace=wrap;html=1;" parent="88" vertex="1"><mxGeometry x="467" y="320" width="220" height="60" as="geometry"/></mxCell><mxCell id="52" value="GET&lt;br&gt;/admins" style="rounded=1;whiteSpace=wrap;html=1;" parent="88" vertex="1"><mxGeometry x="467" y="440" width="220" height="60" as="geometry"/></mxCell><mxCell id="53" value="GET&lt;br&gt;/users" style="rounded=1;whiteSpace=wrap;html=1;" parent="88" vertex="1"><mxGeometry x="467" y="200" width="220" height="60" as="geometry"/></mxCell><mxCell id="54" value="GET&lt;br&gt;/user/id" style="rounded=1;whiteSpace=wrap;html=1;" parent="88" vertex="1"><mxGeometry x="467" y="80" width="220" height="60" as="geometry"/></mxCell><mxCell id="59" value="GET&lt;br&gt;/home" style="rounded=1;whiteSpace=wrap;html=1;" parent="88" vertex="1"><mxGeometry x="80" y="80" width="220" height="60" as="geometry"/></mxCell><mxCell id="60" value="GET&lt;br&gt;/index" style="rounded=1;whiteSpace=wrap;html=1;" parent="88" vertex="1"><mxGeometry x="80" y="200" width="220" height="60" as="geometry"/></mxCell><mxCell id="61" value="GET&lt;br&gt;/profile/id" style="rounded=1;whiteSpace=wrap;html=1;" parent="88" vertex="1"><mxGeometry x="467" y="560" width="220" height="60" as="geometry"/></mxCell><mxCell id="62" value="GET&lt;br&gt;/profiles" style="rounded=1;whiteSpace=wrap;html=1;" parent="88" vertex="1"><mxGeometry x="467" y="680" width="220" height="60" as="geometry"/></mxCell><mxCell id="76" value="GET&lt;br&gt;/exercises" style="rounded=1;whiteSpace=wrap;html=1;" parent="88" vertex="1"><mxGeometry x="80" y="560" width="220" height="60" as="geometry"/></mxCell><mxCell id="77" value="GET&lt;br&gt;/tasks" style="rounded=1;whiteSpace=wrap;html=1;" parent="88" vertex="1"><mxGeometry x="80" y="680" width="220" height="60" as="geometry"/></mxCell><mxCell id="78" value="GET&lt;br&gt;/subjects" style="rounded=1;whiteSpace=wrap;html=1;" parent="88" vertex="1"><mxGeometry x="80" y="440" width="220" height="60" as="geometry"/></mxCell><mxCell id="85" value="GET&lt;br&gt;/exercise/id" style="rounded=1;whiteSpace=wrap;html=1;" parent="88" vertex="1"><mxGeometry x="80" y="920" width="220" height="60" as="geometry"/></mxCell><mxCell id="86" value="GET&lt;br&gt;/task/id" style="rounded=1;whiteSpace=wrap;html=1;" parent="88" vertex="1"><mxGeometry x="80" y="1040" width="220" height="60" as="geometry"/></mxCell><mxCell id="87" value="GET&lt;br&gt;/subject/id" style="rounded=1;whiteSpace=wrap;html=1;" parent="88" vertex="1"><mxGeometry x="80" y="800" width="220" height="60" as="geometry"/></mxCell><mxCell id="95" value="GET&lt;br&gt;/submissions" style="rounded=1;whiteSpace=wrap;html=1;" parent="88" vertex="1"><mxGeometry x="80" y="1160" width="220" height="60" as="geometry"/></mxCell><mxCell id="96" value="GET&lt;br&gt;/submission/id" style="rounded=1;whiteSpace=wrap;html=1;" parent="88" vertex="1"><mxGeometry x="80" y="1280" width="220" height="60" as="geometry"/></mxCell><mxCell id="100" value="GET&lt;br&gt;/testcases" style="rounded=1;whiteSpace=wrap;html=1;" parent="88" vertex="1"><mxGeometry x="80" y="1400" width="220" height="60" as="geometry"/></mxCell><mxCell id="101" value="GET&lt;br&gt;/testcase/id" style="rounded=1;whiteSpace=wrap;html=1;" parent="88" vertex="1"><mxGeometry x="80" y="1520" width="220" height="60" as="geometry"/></mxCell><mxCell id="113" value="GET&lt;br&gt;/admintypes" style="rounded=1;whiteSpace=wrap;html=1;" parent="88" vertex="1"><mxGeometry x="80" y="320" width="220" height="60" as="geometry"/></mxCell><mxCell id="119" style="edgeStyle=orthogonalEdgeStyle;rounded=0;orthogonalLoop=1;jettySize=auto;html=1;entryX=1;entryY=0.5;entryDx=0;entryDy=0;" edge="1" parent="1" source="117" target="88"><mxGeometry relative="1" as="geometry"/></mxCell><mxCell id="120" value="&lt;font style=&quot;font-size: 25px;&quot;&gt;cache.clear()&lt;/font&gt;" style="edgeLabel;html=1;align=center;verticalAlign=middle;resizable=0;points=[];" vertex="1" connectable="0" parent="119"><mxGeometry x="0.1576" y="-5" relative="1" as="geometry"><mxPoint x="27" y="5" as="offset"/></mxGeometry></mxCell><mxCell id="117" value="" style="swimlane;startSize=0;" vertex="1" parent="1"><mxGeometry x="2720" y="80" width="640" height="1600" as="geometry"/></mxCell><mxCell id="89" value="DELETE, PUT&lt;br&gt;/subject/id" style="rounded=0;whiteSpace=wrap;html=1;" parent="117" vertex="1"><mxGeometry x="80" y="80" width="220" height="60" as="geometry"/></mxCell><mxCell id="90" value="POST&lt;br&gt;/subject/add" style="rounded=0;whiteSpace=wrap;html=1;" parent="117" vertex="1"><mxGeometry x="360" y="80" width="220" height="60" as="geometry"/></mxCell><mxCell id="91" value="DELETE, PUT&lt;br&gt;/exercise/id" style="rounded=0;whiteSpace=wrap;html=1;" parent="117" vertex="1"><mxGeometry x="80" y="200" width="220" height="60" as="geometry"/></mxCell><mxCell id="92" value="POST&lt;br&gt;/exercise/add" style="rounded=0;whiteSpace=wrap;html=1;" parent="117" vertex="1"><mxGeometry x="360" y="200" width="220" height="60" as="geometry"/></mxCell><mxCell id="93" value="DELETE, PUT&lt;br&gt;/task/id" style="rounded=0;whiteSpace=wrap;html=1;" parent="117" vertex="1"><mxGeometry x="80" y="320" width="220" height="60" as="geometry"/></mxCell><mxCell id="94" value="POST&lt;br&gt;/task/add" style="rounded=0;whiteSpace=wrap;html=1;" parent="117" vertex="1"><mxGeometry x="360" y="320" width="220" height="60" as="geometry"/></mxCell><mxCell id="97" value="POST&lt;br&gt;/submission/add" style="rounded=0;whiteSpace=wrap;html=1;" parent="117" vertex="1"><mxGeometry x="360" y="440" width="220" height="60" as="geometry"/></mxCell><mxCell id="98" value="POST&lt;br&gt;/testcase/add" style="rounded=0;whiteSpace=wrap;html=1;" parent="117" vertex="1"><mxGeometry x="360" y="560" width="220" height="60" as="geometry"/></mxCell><mxCell id="102" value="DELETE&lt;br&gt;/testcase/id" style="rounded=0;whiteSpace=wrap;html=1;" parent="117" vertex="1"><mxGeometry x="80" y="560" width="220" height="60" as="geometry"/></mxCell><mxCell id="114" value="POST&lt;br&gt;/task/id/attachment/add" style="rounded=0;whiteSpace=wrap;html=1;" parent="117" vertex="1"><mxGeometry x="360" y="680" width="220" height="60" as="geometry"/></mxCell><mxCell id="115" value="POST&lt;br&gt;/task/id/attachment/add" style="rounded=0;whiteSpace=wrap;html=1;" parent="117" vertex="1"><mxGeometry x="360" y="800" width="220" height="60" as="geometry"/></mxCell><mxCell id="116" value="DELETE&lt;br&gt;/task/task_id/attachment/attachment_id" style="rounded=0;whiteSpace=wrap;html=1;" parent="117" vertex="1"><mxGeometry x="80" y="680" width="220" height="60" as="geometry"/></mxCell><mxCell id="47" value="DELETE&lt;br&gt;/task/task_id/instruction/instruction_id" style="rounded=0;whiteSpace=wrap;html=1;fillColor=default;" parent="117" vertex="1"><mxGeometry x="80" y="800" width="220" height="60" as="geometry"/></mxCell><mxCell id="56" value="DELETE, PUT&lt;br&gt;/user/id" style="rounded=0;whiteSpace=wrap;html=1;" parent="117" vertex="1"><mxGeometry x="80" y="920" width="220" height="60" as="geometry"/></mxCell><mxCell id="63" value="POST&lt;br&gt;/user/add" style="rounded=0;whiteSpace=wrap;html=1;" parent="117" vertex="1"><mxGeometry x="360" y="920" width="220" height="60" as="geometry"/></mxCell><mxCell id="43" value="DELETE, PUT&lt;br&gt;/admin/id" style="rounded=0;whiteSpace=wrap;html=1;" parent="117" vertex="1"><mxGeometry x="80" y="1040" width="220" height="60" as="geometry"/></mxCell><mxCell id="66" value="POST&lt;br&gt;/admin/add" style="rounded=0;whiteSpace=wrap;html=1;" parent="117" vertex="1"><mxGeometry x="360" y="1040" width="220" height="60" as="geometry"/></mxCell><mxCell id="71" value="DELETE, PUT&lt;br&gt;/profile/id" style="rounded=0;whiteSpace=wrap;html=1;" parent="117" vertex="1"><mxGeometry x="80" y="1160" width="220" height="60" as="geometry"/></mxCell><mxCell id="69" value="POST&lt;br&gt;/profile/add" style="rounded=0;whiteSpace=wrap;html=1;" parent="117" vertex="1"><mxGeometry x="360" y="1160" width="220" height="60" as="geometry"/></mxCell><mxCell id="40" value="DELETE&lt;br&gt;/file/id" style="rounded=0;whiteSpace=wrap;html=1;" parent="117" vertex="1"><mxGeometry x="360" y="1280" width="220" height="60" as="geometry"/></mxCell></root></mxGraphModel></diagram></mxfile>